<svg width="98" height="93" viewBox="0 0 98 93" fill="none" xmlns="http://www.w3.org/2000/svg">
<path d="M79.7795 0.046875C71.4502 0.046875 64.4223 14.1597 62.247 33.4245L61.4847 39.4229C61.0199 43.0477 55.7397 43.0477 55.2749 39.4229L54.5126 33.4245C52.5046 20.1213 47.3918 10.6637 41.4236 10.6637C35.4555 10.6637 30.3426 20.1213 28.3347 33.4245L27.5724 39.4229C27.1076 43.0477 21.8274 43.0477 21.3625 39.4229L20.6003 33.4245C18.7782 24.5741 15.1341 18.5205 10.9137 18.5205C4.88977 18.5205 0 30.8485 0 46.0469C0 61.2453 4.88977 73.5733 10.9137 73.5733C15.1341 73.5733 18.7968 67.5197 20.6003 58.6693L21.3625 52.6709C21.8274 49.0461 27.1076 49.0461 27.5724 52.6709L28.3347 58.6693C30.3426 71.9725 35.4555 81.4301 41.4236 81.4301C47.3918 81.4301 52.5046 71.9725 54.5126 58.6693L55.2749 52.6709C55.7397 49.0461 61.0199 49.0461 61.4847 52.6709L62.247 58.6693C64.4223 77.9341 71.4502 92.0469 79.7795 92.0469C89.838 92.0469 98 71.4573 98 46.0469C98 20.6365 89.8566 0.046875 79.7795 0.046875Z" fill="black"/>
</svg>
