<svg width="597" height="559" viewBox="0 0 597 559" fill="none" xmlns="http://www.w3.org/2000/svg">
<path d="M486.004 0.284424C435.263 0.284424 392.45 85.8816 379.199 202.727L374.555 239.108C371.723 261.094 339.557 261.094 336.726 239.108L332.082 202.727C319.85 122.04 288.703 64.6776 252.346 64.6776C215.989 64.6776 184.842 122.04 172.61 202.727L167.966 239.108C165.135 261.094 132.969 261.094 130.137 239.108L125.493 202.727C114.394 149.047 92.1946 112.331 66.4843 112.331C29.7877 112.331 0 187.103 0 279.284C0 371.466 29.7877 446.238 66.4843 446.238C92.1946 446.238 114.507 409.522 125.493 355.842L130.137 319.46C132.969 297.475 165.135 297.475 167.966 319.46L172.61 355.842C184.842 436.529 215.989 493.891 252.346 493.891C288.703 493.891 319.85 436.529 332.082 355.842L336.726 319.46C339.557 297.475 371.723 297.475 374.555 319.46L379.199 355.842C392.45 472.687 435.263 558.284 486.004 558.284C547.278 558.284 597 433.404 597 279.284C597 125.165 547.392 0.284424 486.004 0.284424Z" fill="black"/>
</svg>
