<svg width="803" height="116" viewBox="0 0 803 116" fill="none" xmlns="http://www.w3.org/2000/svg">
<path d="M797.062 20.6441C794.346 12.4574 788.386 -0.18397 779.368 0.00657037L620.427 0.0328519C618.937 0.137978 617.368 0.584763 615.72 1.46519C604.776 8.64661 600.676 27.3328 598.902 41.3605H598.863C598.863 43.9492 596.753 46.0518 594.156 46.0518C591.558 46.0518 589.449 43.9492 589.449 41.3605H589.403C586.719 20.0199 579.527 0.847578 567.858 0.0328519V0L23.0777 0.0131407C21.3571 -0.0131407 19.6496 0.440215 18.1334 1.24837C12.5957 4.21161 9.27963 10.7886 6.74811 16.8333C-1.94082 39.4354 -2.06609 71.5054 5.37685 94.482C8.09297 102.669 14.0526 115.31 23.0711 115.12L567.852 115.126C567.852 115.126 570.911 114.541 572.559 113.661C583.502 106.479 587.603 87.7933 589.376 73.7656H589.409C589.409 73.6079 589.416 73.4502 589.436 73.2991V73.2531C589.699 70.9009 591.697 69.0743 594.116 69.0743C596.714 69.0743 598.823 71.1768 598.823 73.7656H598.869C601.553 95.1062 608.745 114.279 620.414 115.093V115.126H779.355C779.355 115.126 782.783 114.692 784.299 113.878C789.837 110.914 793.153 104.338 795.684 98.2928C804.373 75.6907 804.498 43.6207 797.055 20.6441H797.062Z" fill="#E8FF5B"/>
</svg>
