<svg width="1073" height="158" viewBox="0 0 1073 158" fill="none" xmlns="http://www.w3.org/2000/svg">
<path d="M131.899 115.295L43.0871 1.71572H0V154.611H36.2723V48.6765L112.334 145.001C123.106 158.543 141.132 158.543 151.904 145.001L227.966 48.6765V154.611H264.238V1.71572H221.371L131.899 115.295ZM506.493 1.71572H305.127V154.611H508.471V123.377H341.399V93.6715H499.898V62.4371H341.399V32.9501H506.493V1.71572ZM781.503 154.611L844.375 1.71572H806.783L760.179 118.353L712.256 15.0395C708.079 5.86575 696.648 0.623612 686.535 0.623612C676.203 0.623612 664.992 5.86575 660.815 15.0395L612.452 118.353L566.067 1.71572H528.696L591.128 154.611H632.017L686.535 37.9738L740.834 154.611H781.503ZM877.13 105.685L858.004 135.609C885.044 149.151 921.096 156.14 963.743 156.14C1007.93 156.14 1073 153.082 1073 106.777C1073 63.0924 1015.4 64.6213 967.041 62.0003C927.251 60.0345 899.113 61.345 899.113 48.4581C899.113 33.8238 927.471 32.2948 963.524 32.2948C1003.09 32.2948 1028.15 37.537 1049.26 48.2397L1067.5 18.0974C1040.68 6.52101 1003.31 0.186768 963.743 0.186768C916.48 0.186768 859.983 3.89995 859.983 48.6765C859.983 91.2689 916.919 89.0846 965.282 91.4873C1010.79 93.6715 1033.87 92.7978 1033.87 105.685C1033.87 119.445 1015.62 124.032 963.743 124.032C934.506 124.032 904.169 118.572 877.13 105.685Z" fill="black"/>
</svg>
