<svg width="172" height="25" viewBox="0 0 172 25" fill="none" xmlns="http://www.w3.org/2000/svg">
<g clip-path="url(#clip0_4001_790)">
<g clip-path="url(#clip1_4001_790)">
<path d="M21.1432 18.4963L6.90678 0.524882H0V24.7172H5.81438V7.95539L18.007 23.1966C19.7337 25.3393 22.6232 25.3393 24.3499 23.1966L36.5425 7.95539V24.7172H42.3569V0.524882H35.4854L21.1432 18.4963ZM81.1899 0.524882H48.9113V24.7172H81.5071V19.7751H54.7257V15.0748H80.1328V10.1327H54.7257V5.46703H81.1899V0.524882ZM125.274 24.7172L135.352 0.524882H129.326L121.855 18.9802L114.173 2.63307C113.504 1.18153 111.671 0.35208 110.05 0.35208C108.394 0.35208 106.597 1.18153 105.927 2.63307L98.175 18.9802L90.7396 0.524882H84.749L94.7568 24.7172H101.311L110.05 6.26192L118.754 24.7172H125.274ZM140.602 16.9757L137.537 21.7105C141.871 23.8532 147.65 24.9591 154.486 24.9591C161.569 24.9591 172 24.4753 172 17.1485C172 10.2364 162.767 10.4783 155.015 10.0636C148.637 9.75253 144.126 9.95989 144.126 7.92083C144.126 5.60527 148.672 5.36335 154.451 5.36335C160.794 5.36335 164.811 6.1928 168.194 7.88627L171.119 3.11692C166.82 1.28521 160.829 0.282959 154.486 0.282959C146.91 0.282959 137.854 0.870488 137.854 7.95539C137.854 14.6947 146.981 14.3491 154.733 14.7292C162.027 15.0748 165.728 14.9366 165.728 16.9757C165.728 19.153 162.803 19.8788 154.486 19.8788C149.8 19.8788 144.937 19.0147 140.602 16.9757Z" fill="#FFFCF6"/>
</g>
</g>
<defs>
<clipPath id="clip0_4001_790">
<rect width="172" height="25" fill="white"/>
</clipPath>
<clipPath id="clip1_4001_790">
<rect width="172" height="25" fill="white" transform="translate(0 0.253418)"/>
</clipPath>
</defs>
</svg>
