<svg width="172" height="25" viewBox="0 0 172 25" fill="none" xmlns="http://www.w3.org/2000/svg">
<g clip-path="url(#clip0_4001_786)">
<path d="M21.1432 18.2429L6.90678 0.271464H0V24.4638H5.81438V7.70197L18.007 22.9431C19.7337 25.0859 22.6232 25.0859 24.3499 22.9431L36.5425 7.70197V24.4638H42.3569V0.271464H35.4854L21.1432 18.2429ZM81.1899 0.271464H48.9113V24.4638H81.5071V19.5217H54.7257V14.8214H80.1328V9.87928H54.7257V5.21361H81.1899V0.271464ZM125.274 24.4638L135.352 0.271464H129.326L121.855 18.7268L114.173 2.37965C113.504 0.928114 111.671 0.098662 110.05 0.098662C108.394 0.098662 106.597 0.928114 105.927 2.37965L98.175 18.7268L90.7396 0.271464H84.749L94.7568 24.4638H101.311L110.05 6.0085L118.754 24.4638H125.274ZM140.602 16.7223L137.537 21.457C141.871 23.5998 147.65 24.7057 154.486 24.7057C161.569 24.7057 172 24.2219 172 16.8951C172 9.98296 162.767 10.2249 155.015 9.81016C148.637 9.49911 144.126 9.70648 144.126 7.66741C144.126 5.35186 148.672 5.10993 154.451 5.10993C160.794 5.10993 164.811 5.93938 168.194 7.63285L171.119 2.8635C166.82 1.0318 160.829 0.029541 154.486 0.029541C146.91 0.029541 137.854 0.61707 137.854 7.70197C137.854 14.4413 146.981 14.0957 154.733 14.4758C162.027 14.8214 165.728 14.6832 165.728 16.7223C165.728 18.8996 162.803 19.6253 154.486 19.6253C149.8 19.6253 144.937 18.7613 140.602 16.7223Z" fill="black"/>
</g>
<defs>
<clipPath id="clip0_4001_786">
<rect width="172" height="25" fill="white"/>
</clipPath>
</defs>
</svg>
